#!OML:ASF H:\Pregnant\Project 1\Capture day 1\Session 1\femalepreg.ASF
:FULLY-SPECIFIED
:DEGREES
637
root 11.5638 14.6382 25.2699 391.429 -101.268 -374.496
lowerback -13.4061 1.47005 -9.5675
upperback -2.67231 3.23482 -2.98401
thorax 4.31154 1.40636 2.75766
lowerneck -15.7366 -2.24069 0.0693003
upperneck 31.9352 -7.80818 9.41954
head 13.9618 -2.54704 2.36323
rclavicle -6.75868e-015 3.10104e-014
rhumerus -25.9474 -12.8479 -78.4897
rradius 35.0588
rwrist -1.81666
rhand -10.6911 -12.0831
rfingers 7.12502
rthumb 15.318 -41.4958
lclavicle -6.75868e-015 3.10104e-014
lhumerus -30.4256 17.3671 70.9111
lradius 28.6133
lwrist 36.3917
lhand -30.0639 6.18365
lfingers 7.12502
lthumb -3.37917 36.1366
rfemur -39.3488 14.6974 14.246
rtibia 74.6492
rfoot -10.4201 3.12674
rtoes -17.7717
lfemur -39.3971 -14.5991 -23.2872
ltibia 40.9614
lfoot -16.011 -0.0126385
ltoes -9.12455
638
root 11.5141 14.6419 25.2562 391.913 -101.068 -374.933
lowerback -13.4018 1.38928 -9.5669
upperback -2.6621 3.12891 -2.99751
thorax 4.33298 1.353 2.72677
lowerneck -15.7786 -2.23092 0.0441436
upperneck 32.009 -7.81275 9.44788
head 14.0072 -2.54605 2.37974
rclavicle -2.78299e-015 2.8625e-014
rhumerus -26.1179 -12.1636 -78.8402
rradius 34.9991
rwrist -0.922979
rhand -9.90933 -11.563
rfingers 7.12502
rthumb 16.071 -40.9165
lclavicle -2.78299e-015 2.8625e-014
lhumerus -30.2232 17.4668 71.5265
lradius 27.7725
lwrist 35.6928
lhand -29.9905 6.49381
lfingers 7.12502
lthumb -3.30832 36.4479
rfemur -40.464 14.7087 13.7504
rtibia 75.1495
rfoot -11.2968 1.20164
rtoes -18.8751
lfemur -39.1878 -14.6444 -23.3259
ltibia 40.8404
lfoot -16.1259 -0.170011
ltoes -9.06101
639
root 11.4636 14.6476 25.245 392.597 -100.798 -375.556
lowerback -13.3986 1.28707 -9.48559
upperback -2.66447 2.98299 -3.03298
thorax 4.3518 1.28119 2.62161
lowerneck -15.825 -2.21124 0.0358511
upperneck 32.0893 -7.80944 9.47529
head 14.0554 -2.53967 2.39438
rclavicle -8.28932e-014 6.04305e-014
rhumerus -26.309 -11.498 -79.2021
rradius 34.9169
rwrist -0.0731834
rhand -9.16985 -11.1015
rfingers 7.12502
rthumb 16.7829 -40.3961
lclavicle -8.28932e-014 6.04305e-014
lhumerus -30.1014 17.4809 72.1226
lradius 27.0784
lwrist 35.0629
lhand -29.912 6.82888
lfingers 7.12502
lthumb -3.23245 36.7841
rfemur -41.5598 14.6269 13.2093
rtibia 75.5118
rfoot -12.1036 -0.71299
rtoes -19.445
lfemur -38.9785 -14.8299 -23.3396
ltibia 40.6541
lfoot -16.181 -0.265532
ltoes -9.07401
640
root 11.412 14.6554 25.2352 393.413 -100.486 -376.301
lowerback -13.3994 1.17106 -9.33955
upperback -2.67806 2.80959 -3.0838
thorax 4.36739 1.19691 2.45992
lowerneck -15.8753 -2.17271 0.0495476
upperneck 32.1707 -7.78229 9.49474
head 14.1023 -2.52121 2.40604
rclavicle 1.33186e-014 4.77083e-015
rhumerus -26.5203 -10.8339 -79.576
rradius 34.8153
rwrist 0.696736
rhand -8.50652 -10.7273
rfingers 7.12502
rthumb 17.4214 -39.9666
lclavicle 1.33186e-014 4.77083e-015
lhumerus -30.0593 17.4016 72.7039
lradius 26.5388
lwrist 34.5241
lhand -29.8006 7.17236
lfingers 7.12502
lthumb -3.12494 37.1292
rfemur -42.62 14.4923 12.6297
rtibia 75.7226
rfoot -12.868 -2.57111
rtoes -19.5287
lfemur -38.7562 -15.1195 -23.3278
ltibia 40.4067
lfoot -16.1901 -0.299519
ltoes -9.16122
641
root 11.3591 14.6654 25.2252 394.271 -100.167 -377.081
lowerback -13.4121 1.05272 -9.1516
upperback -2.69982 2.62803 -3.14296
thorax 4.38291 1.10919 2.26495
lowerneck -15.9312 -2.1194 0.0865762
upperneck 32.2456 -7.73469 9.50271
head 14.1446 -2.4923 2.41228
rclavicle -1.73937e-014 6.99722e-014
rhumerus -26.7548 -10.1894 -79.9544
rradius 34.7002
rwrist 1.3958
rhand -7.91731 -10.439
rfingers 7.12502
rthumb 17.9884 -39.6272
lclavicle -1.73937e-014 6.99722e-014
lhumerus -30.0848 17.2108 73.2879
lradius 26.1461
lwrist 34.0783
lhand -29.6861 7.45362
lfingers 7.12502
lthumb -3.01428 37.4121
rfemur -43.6338 14.3634 12.0163
rtibia 75.7698
rfoot -13.5991 -4.35908
rtoes -19.232
lfemur -38.5085 -15.482 -23.2883
ltibia 40.1044
lfoot -16.1679 -0.261336
ltoes -9.33433
642
root 11.3046 14.6788 25.2122 394.89 -99.9014 -377.636
lowerback -13.4361 0.947696 -8.95967
upperback -2.72439 2.46416 -3.19217
thorax 4.39798 1.0303 2.08104
lowerneck -15.9912 -2.05758 0.143717
upperneck 32.3191 -7.67142 9.48691
head 14.1839 -2.45698 2.40796
rclavicle -8.24956e-015 2.38542e-015
rhumerus -27.0072 -9.53965 -80.3363
rradius 34.572
rwrist 2.01072
rhand -7.40648 -10.2407
rfingers 7.12502
rthumb 18.4798 -39.3829
lclavicle -8.24956e-015 2.38542e-015
lhumerus -30.1809 16.9019 73.88
lradius 25.9055
lwrist 33.7431
lhand -29.5469 7.67076
lfingers 7.12502
lthumb -2.87984 37.6311
rfemur -44.5802 14.3316 11.3942
rtibia 75.6296
rfoot -14.2729 -6.07656
rtoes -18.6454
lfemur -38.193 -15.8255 -23.2171
ltibia 39.7512
lfoot -16.1472 -0.160203
ltoes -9.55623
643
root 11.2487 14.696 25.1948 395.109 -99.7186 -377.81
lowerback -13.4699 0.868471 -8.78119
upperback -2.74761 2.33702 -3.22506
thorax 4.41374 0.969352 1.92768
lowerneck -16.0554 -2.00367 0.207208
upperneck 32.3904 -7.61511 9.45353
head 14.2226 -2.426 2.39407
rclavicle 1.98785e-016 -2.62396e-014
rhumerus -27.2758 -8.88397 -80.7132
rradius 34.4327
rwrist 2.53068
rhand -6.96721 -10.1146
rfingers 7.12502
rthumb 18.9024 -39.2162
lclavicle 1.98785e-016 -2.62396e-014
lhumerus -30.3389 16.4448 74.4979
lradius 25.8191
lwrist 33.5312
lhand -29.3691 7.82243
lfingers 7.12502
lthumb -2.70817 37.785
rfemur -45.4527 14.4464 10.7734
rtibia 75.2907
rfoot -14.8818 -7.72478
rtoes -17.8829
lfemur -37.7913 -16.1047 -23.1154
ltibia 39.3487
lfoot -16.1422 -0.00368706
ltoes -9.81274
644
root 11.1906 14.7192 25.1664 394.291 -99.753 -377.006
lowerback -13.5086 0.862241 -8.6859
upperback -2.76058 2.31839 -3.21896
thorax 4.42689 0.960992 1.87915
lowerneck -16.1264 -1.94701 0.273395
upperneck 32.4601 -7.55477 9.41853
head 14.2617 -2.39293 2.37968
rclavicle 2.82274e-014 -4.77083e-015
rhumerus -27.5649 -8.23922 -81.0836
rradius 34.2821
rwrist 2.97003
rhand -6.58398 -10.0444
rfingers 7.12502
rthumb 19.2709 -39.1095
lclavicle 2.82274e-014 -4.77083e-015
lhumerus -30.5583 15.8111 75.1434
lradius 25.8838
lwrist 33.4312
lhand -29.1084 7.89783
lfingers 7.12502
lthumb -2.45637 37.8634
rfemur -46.2255 14.9055 10.1981
rtibia 74.7294
rfoot -15.3992 -9.32617
rtoes -17.039
lfemur -37.2048 -16.1412 -22.9757
ltibia 38.8928
lfoot -16.2158 0.206883
ltoes -10.0333
645
root 11.1313 14.7463 25.1323 392.996 -99.89 -375.752
lowerback -13.5484 0.888738 -8.62238
upperback -2.77062 2.34729 -3.19229
thorax 4.43702 0.975854 1.87769
lowerneck -16.2072 -1.88905 0.342203
upperneck 32.5279 -7.48934 9.37445
head 14.3013 -2.35801 2.36191
rclavicle 1.50082e-014 6.36111e-015
rhumerus -27.8727 -7.611 -81.4408
rradius 34.1222
rwrist 3.3365
rhand -6.23676 -10.0036
rfingers 7.12502
rthumb 19.6047 -39.0352
lclavicle 1.50082e-014 6.36111e-015
lhumerus -30.8346 15.0009 75.8142
lradius 26.0883
lwrist 33.4002
lhand -28.703 7.88669
lfingers 7.12502
lthumb -2.06488 37.8564
rfemur -46.9224 15.5157 9.64284
rtibia 73.9665
rfoot -15.8174 -10.8829
rtoes -16.3622
lfemur -36.5097 -16.0677 -22.812
ltibia 38.3768
lfoot -16.3109 0.443664
ltoes -10.233
646
root 11.0711 14.7771 25.0934 391.431 -100.099 -374.256
lowerback -13.5811 0.931523 -8.60279
upperback -2.77656 2.40268 -3.13726
thorax 4.4419 1.00361 1.93471
lowerneck -16.2962 -1.83991 0.396013
upperneck 32.5964 -7.42756 9.31841
head 14.3431 -2.32757 2.34127
rclavicle -7.95139e-015 1.35174e-014
rhumerus -28.1957 -7.00739 -81.763
rradius 33.9538
rwrist 3.64647
rhand -5.9178 -9.97953
rfingers 7.12502
rthumb 19.9114 -38.9795
lclavicle -7.95139e-015 1.35174e-014
lhumerus -31.1672 14.0753 76.4988
lradius 26.4096
lwrist 33.3339
lhand -28.0491 7.76786
lfingers 7.12502
lthumb -1.43332 37.7428
rfemur -47.5419 16.2344 9.0972
rtibia 73.0207
rfoot -16.1583 -12.3757
rtoes -15.7728
lfemur -35.7122 -15.9147 -22.6351
ltibia 37.7906
lfoot -16.4143 0.686448
ltoes -10.3825
